<svg width="376" height="334" viewBox="0 0 376 334" fill="none" xmlns="http://www.w3.org/2000/svg">
<path d="M375.052 167.038C375.052 142.193 343.938 118.647 296.235 104.045C307.243 55.4246 302.351 16.742 280.792 4.35752C275.823 1.4525 270.013 0.0764465 263.668 0.0764465V17.1243C267.185 17.1243 270.013 17.8123 272.383 19.1119C282.78 25.0748 287.29 47.7798 283.774 76.9828C282.933 84.1689 281.557 91.7372 279.875 99.4585C264.891 95.789 248.531 92.9604 231.331 91.1257C221.01 76.9828 210.308 64.1396 199.528 52.9018C224.45 29.7382 247.843 17.0478 263.745 17.0478V0C242.721 0 215.2 14.9838 187.373 40.976C159.546 15.1366 132.025 0.305792 111.002 0.305792V17.3536C126.827 17.3536 150.296 29.9675 175.218 52.9783C164.515 64.2161 153.813 76.9828 143.645 91.1257C126.368 92.9604 110.008 95.789 95.0245 99.5349C93.2662 91.8901 91.9666 84.4747 91.0492 77.3651C87.4562 48.162 91.8901 25.4571 102.211 19.4177C104.504 18.0417 107.485 17.4301 111.002 17.4301V0.382238C104.58 0.382238 98.7704 1.7583 93.7249 4.66331C72.2431 17.0478 67.4269 55.6539 78.5118 104.122C30.9613 118.8 0 142.269 0 167.038C0 191.884 31.1142 215.43 78.8176 230.031C67.8091 278.652 72.7018 317.334 94.26 329.719C99.2291 332.624 105.039 334 111.461 334C132.484 334 160.005 319.016 187.832 293.024C215.659 318.863 243.18 333.694 264.203 333.694C270.625 333.694 276.435 332.318 281.48 329.413C302.962 317.029 307.778 278.422 296.693 229.955C344.091 215.353 375.052 191.807 375.052 167.038ZM275.517 116.048C272.689 125.909 269.172 136.077 265.197 146.244C262.063 140.129 258.775 134.013 255.182 127.897C251.666 121.781 247.92 115.818 244.174 110.008C255.03 111.614 265.503 113.601 275.517 116.048ZM240.504 197.464C234.542 207.785 228.426 217.57 222.081 226.667C210.69 227.661 199.146 228.196 187.526 228.196C175.983 228.196 164.439 227.661 153.125 226.744C146.78 217.647 140.587 207.938 134.624 197.694C128.814 187.679 123.539 177.512 118.723 167.268C123.463 157.024 128.814 146.78 134.548 136.765C140.511 126.444 146.627 116.659 152.972 107.562C164.363 106.568 175.906 106.033 187.526 106.033C199.07 106.033 210.613 106.568 221.928 107.485C228.273 116.583 234.465 126.292 240.428 136.536C246.238 146.55 251.513 156.718 256.329 166.962C251.513 177.206 246.238 187.45 240.504 197.464ZM265.197 187.526C269.325 197.77 272.842 208.014 275.747 217.952C265.732 220.399 255.182 222.463 244.25 224.068C247.996 218.182 251.742 212.142 255.259 205.95C258.775 199.834 262.063 193.642 265.197 187.526ZM187.679 269.096C180.569 261.757 173.46 253.577 166.427 244.633C173.307 244.938 180.34 245.168 187.45 245.168C194.636 245.168 201.745 245.015 208.702 244.633C201.822 253.577 194.712 261.757 187.679 269.096ZM130.802 224.068C119.946 222.463 109.473 220.475 99.4584 218.029C102.287 208.167 105.804 198 109.779 187.832C112.913 193.948 116.2 200.064 119.794 206.179C123.387 212.295 127.056 218.258 130.802 224.068ZM187.297 64.9805C194.407 72.3195 201.516 80.4994 208.549 89.4438C201.669 89.138 194.636 88.9087 187.526 88.9087C180.34 88.9087 173.23 89.0616 166.274 89.4438C173.154 80.4994 180.264 72.3195 187.297 64.9805ZM130.726 110.008C126.98 115.895 123.234 121.934 119.717 128.126C116.2 134.242 112.913 140.358 109.779 146.474C105.651 136.23 102.134 125.986 99.2291 116.048C109.244 113.678 119.794 111.614 130.726 110.008ZM61.5404 205.721C34.4779 194.177 16.9714 179.041 16.9714 167.038C16.9714 155.036 34.4779 139.823 61.5404 128.356C68.1149 125.527 75.301 123.004 82.7164 120.634C87.0739 135.618 92.8075 151.214 99.9171 167.191C92.8839 183.092 87.2268 198.611 82.9458 213.518C75.3774 211.149 68.1914 208.549 61.5404 205.721ZM102.669 314.965C92.2724 309.002 87.762 286.297 91.2786 257.094C92.1195 249.908 93.4955 242.339 95.1774 234.618C110.161 238.287 126.521 241.116 143.722 242.951C154.042 257.094 164.745 269.937 175.524 281.175C150.602 304.338 127.209 317.029 111.308 317.029C107.868 316.952 104.963 316.264 102.669 314.965ZM284.003 256.711C287.596 285.914 283.162 308.619 272.842 314.659C270.548 316.035 267.567 316.646 264.05 316.646C248.226 316.646 224.756 304.032 199.834 281.022C210.537 269.784 221.24 257.017 231.407 242.874C248.684 241.04 265.044 238.211 280.028 234.465C281.786 242.186 283.162 249.602 284.003 256.711ZM313.436 205.721C306.861 208.549 299.675 211.072 292.26 213.442C287.902 198.458 282.168 182.863 275.059 166.885C282.092 150.984 287.749 135.465 292.03 120.558C299.599 122.928 306.785 125.527 313.512 128.356C340.574 139.899 358.081 155.036 358.081 167.038C358.005 179.041 340.498 194.254 313.436 205.721Z" fill="#61DAFB"/>
<path d="M187.45 201.975C206.745 201.975 222.386 186.333 222.386 167.038C222.386 147.743 206.745 132.102 187.45 132.102C168.155 132.102 152.513 147.743 152.513 167.038C152.513 186.333 168.155 201.975 187.45 201.975Z" fill="#61DAFB"/>
</svg>
